<svg xmlns="http://www.w3.org/2000/svg" viewBox="0 0 240 160" fill="none">
  <defs>
    <linearGradient id="bg1" x1="0" y1="0" x2="240" y2="160" gradientUnits="userSpaceOnUse">
      <stop stop-color="#EDE9FE"/>
      <stop offset="1" stop-color="#F3E8FF"/>
    </linearGradient>
  </defs>
  <rect width="240" height="160" rx="16" fill="url(#bg1)"/>
  <!-- Document body -->
  <rect x="60" y="28" width="120" height="104" rx="10" fill="white" stroke="#DFE1E6" stroke-width="1.5"/>
  <!-- Header bar -->
  <rect x="60" y="28" width="120" height="26" rx="10" fill="#9D63F6"/>
  <rect x="60" y="44" width="120" height="10" fill="#9D63F6"/>
  <!-- Logo circle in header -->
  <circle cx="80" cy="41" r="8" fill="white" opacity="0.3"/>
  <text x="77" y="44" font-size="7" font-weight="bold" fill="white" font-family="system-ui">IHC</text>
  <!-- Title text lines -->
  <rect x="95" y="36" width="55" height="4" rx="2" fill="white" opacity="0.6"/>
  <rect x="95" y="44" width="35" height="3" rx="1.5" fill="white" opacity="0.4"/>
  <!-- Content lines -->
  <rect x="72" y="64" width="96" height="4" rx="2" fill="#DFE1E6"/>
  <rect x="72" y="74" width="80" height="4" rx="2" fill="#DFE1E6"/>
  <rect x="72" y="84" width="88" height="4" rx="2" fill="#DFE1E6"/>
  <rect x="72" y="94" width="60" height="4" rx="2" fill="#DFE1E6"/>
  <!-- Stamp / seal -->
  <circle cx="144" cy="108" r="14" fill="#40C4AA" opacity="0.15"/>
  <circle cx="144" cy="108" r="10" stroke="#40C4AA" stroke-width="1.5" fill="none"/>
  <path d="M139 108l3 3 6-6" stroke="#40C4AA" stroke-width="2" stroke-linecap="round" stroke-linejoin="round"/>
  <!-- Speed indicator -->
  <circle cx="42" cy="80" r="18" fill="#FFBD4C" opacity="0.12"/>
  <path d="M42 72v8l5 3" stroke="#FFBD4C" stroke-width="2" stroke-linecap="round" stroke-linejoin="round"/>
  <!-- Sparkles -->
  <circle cx="198" cy="40" r="3" fill="#9D63F6" opacity="0.3"/>
  <circle cx="205" cy="55" r="2" fill="#FFBD4C" opacity="0.4"/>
  <circle cx="30" cy="50" r="2.5" fill="#9D63F6" opacity="0.25"/>
</svg>