<svg width="172" height="46" viewBox="0 0 172 46" fill="none" xmlns="http://www.w3.org/2000/svg">
<mask id="mask0_15528_282" style="mask-type:luminance" maskUnits="userSpaceOnUse" x="2" y="2" width="40" height="41">
<path d="M42 2.76893H2.80005V42.4038H42V2.76893Z" fill="white"/>
</mask>
<g mask="url(#mask0_15528_282)">
<path d="M23.2958 22.5334C23.2958 21.2142 24.335 20.1454 25.6175 20.1454C26.9002 20.1454 27.9394 21.2142 27.9394 22.5334C27.9394 23.8525 26.9002 24.9213 25.6175 24.9213C24.335 24.9213 23.2958 23.8525 23.2958 22.5334ZM38.5437 22.5222C38.5437 21.6829 38.0975 20.9591 37.4407 20.5643C36.8836 20.9768 36.5168 21.646 36.5168 22.4066C36.5168 23.2459 36.9631 23.9697 37.62 24.3645C38.1771 23.952 38.5437 23.2828 38.5437 22.5222ZM32.5706 24.8619C33.4803 24.4912 34.1248 23.5829 34.1248 22.5158C34.1248 21.2961 33.2853 20.2803 32.1697 20.0411C31.2599 20.4119 30.6138 21.3202 30.6138 22.3874C30.6138 23.6069 31.4534 24.6228 32.5691 24.8619H32.5706ZM34.5602 30.1031C35.6228 29.8848 36.4248 28.9204 36.4248 27.7617C36.4248 27.0717 36.1361 26.4555 35.682 26.019C34.6194 26.2373 33.8173 27.2017 33.8173 28.3604C33.8173 29.0504 34.106 29.6667 34.5602 30.1031ZM31.0289 28.0666C31.0289 27.4039 30.7762 26.8069 30.3705 26.356C30.0897 26.2405 29.7838 26.173 29.4623 26.173C28.1048 26.173 27.0032 27.306 27.0032 28.7021C27.0032 29.365 27.2559 29.962 27.6617 30.4129C27.9425 30.5284 28.2484 30.5957 28.5698 30.5957C29.9273 30.5957 31.0289 29.4644 31.0289 28.0666ZM22.3954 30.8189C23.678 30.8189 24.7172 29.7501 24.7172 28.4309C24.7172 27.1118 23.678 26.0431 22.3954 26.0431C21.1127 26.0431 20.0735 27.1118 20.0735 28.4309C20.0735 29.7501 21.1127 30.8189 22.3954 30.8189ZM33.5146 33.0207C33.5146 32.7125 33.4537 32.4205 33.3493 32.1492C33.1947 32.1156 33.034 32.0963 32.8687 32.0963C31.586 32.0963 30.5468 33.165 30.5468 34.4842C30.5468 34.7922 30.6077 35.0844 30.7123 35.3556C30.8667 35.3893 31.0274 35.4085 31.1929 35.4085C32.4754 35.4085 33.5146 34.3398 33.5146 33.0207ZM23.5844 34.4858C23.5844 34.5227 23.5937 34.558 23.5954 34.5933C24.0212 35.0892 24.6361 35.4085 25.3304 35.4085C26.6131 35.4085 27.6523 34.3398 27.6523 33.0207C27.6523 32.9837 27.6429 32.9484 27.6414 32.9132C27.2153 32.4173 26.6006 32.0979 25.9062 32.0979C24.6235 32.0979 23.5844 33.1667 23.5844 34.4858ZM29.7073 37.0824C29.4483 36.962 29.1612 36.8929 28.8585 36.8929C27.8473 36.8929 27.0063 37.6359 26.819 38.6182C27.0781 38.7384 27.3651 38.8074 27.668 38.8074C28.679 38.8074 29.52 38.0645 29.7073 37.0824ZM22.3954 38.8074C23.1194 38.8074 23.7544 38.4271 24.1274 37.8494C23.7544 37.2733 23.1194 36.8914 22.3954 36.8914C21.6713 36.8914 21.0363 37.2716 20.6633 37.8494C21.0363 38.4255 21.6713 38.8074 22.3954 38.8074ZM33.8173 16.8059C33.8173 17.963 34.6178 18.9274 35.682 19.1474C36.1361 18.7109 36.4248 18.0946 36.4248 17.4045C36.4248 16.2474 35.6243 15.283 34.5602 15.0632C34.106 15.4997 33.8173 16.1158 33.8173 16.8059ZM28.5698 14.572C28.2484 14.572 27.9425 14.6395 27.6617 14.755C27.2559 15.206 27.0032 15.8046 27.0032 16.4657C27.0032 17.8619 28.1032 18.9949 29.4623 18.9949C29.7838 18.9949 30.0897 18.9274 30.3705 18.8119C30.7762 18.361 31.0289 17.7624 31.0289 17.1013C31.0289 15.7051 29.929 14.572 28.5698 14.572ZM20.0735 16.737C20.0735 18.0561 21.1127 19.1248 22.3954 19.1248C23.678 19.1248 24.7172 18.0561 24.7172 16.737C24.7172 15.4178 23.678 14.349 22.3954 14.349C21.1127 14.349 20.0735 15.4178 20.0735 16.737ZM31.1929 9.75775C31.0274 9.75775 30.8682 9.77701 30.7123 9.81071C30.6092 10.0819 30.5468 10.374 30.5468 10.6821C30.5468 12.0012 31.586 13.07 32.8687 13.07C33.034 13.07 33.1932 13.0508 33.3493 13.0171C33.4522 12.7459 33.5146 12.4538 33.5146 12.1457C33.5146 10.8265 32.4754 9.75775 31.1929 9.75775ZM25.9062 13.07C26.6006 13.07 27.2153 12.7507 27.6414 12.2548C27.6414 12.2179 27.6523 12.1842 27.6523 12.1473C27.6523 10.8281 26.6131 9.75936 25.3304 9.75936C24.6361 9.75936 24.0212 10.0787 23.5954 10.5746C23.5937 10.6115 23.5844 10.6452 23.5844 10.6821C23.5844 12.0012 24.6235 13.07 25.9062 13.07ZM27.6695 6.35883C27.3667 6.35883 27.0812 6.42944 26.8207 6.54819C27.0079 7.53192 27.8488 8.27333 28.8601 8.27333C29.1627 8.27333 29.4483 8.20273 29.7089 8.08396C29.5217 7.10024 28.6806 6.35883 27.6695 6.35883ZM20.6633 7.31688C21.0363 7.893 21.6713 8.27494 22.3954 8.27494C23.1194 8.27494 23.7544 7.8946 24.1274 7.31688C23.7544 6.74076 23.1194 6.35883 22.3954 6.35883C21.6713 6.35883 21.0363 6.73917 20.6633 7.31688ZM19.1826 20.245C17.8999 20.245 16.8607 21.3137 16.8607 22.633C16.8607 23.952 17.8999 25.0208 19.1826 25.0208C20.4651 25.0208 21.5043 23.952 21.5043 22.633C21.5043 21.3137 20.4651 20.245 19.1826 20.245ZM6.2563 22.6442C6.2563 23.4835 6.70258 24.2071 7.3595 24.6019C7.91656 24.1895 8.28325 23.5203 8.28325 22.7597C8.28325 21.9204 7.83697 21.1966 7.18005 20.8019C6.62299 21.2142 6.2563 21.8834 6.2563 22.6442ZM12.2295 20.3043C11.3197 20.6751 10.6737 21.5834 10.6737 22.6506C10.6737 23.8686 11.5132 24.886 12.6289 25.1251C13.5386 24.7544 14.1846 23.8461 14.1846 22.779C14.1846 21.5593 13.3451 20.5435 12.2295 20.3043ZM10.24 15.0647C9.17734 15.283 8.37531 16.2474 8.37531 17.4061C8.37531 18.0961 8.66398 18.7124 9.11805 19.1489C10.1807 18.9307 10.9827 17.9662 10.9827 16.8076C10.9827 16.1175 10.694 15.5012 10.24 15.0647ZM13.7711 17.1013C13.7711 17.764 14.0238 18.361 14.4296 18.8119C14.7104 18.9274 15.0163 18.9949 15.3377 18.9949C16.6953 18.9949 17.7968 17.8619 17.7968 16.4657C17.7968 15.8029 17.5441 15.206 17.1384 14.755C16.8576 14.6395 16.5517 14.572 16.2302 14.572C14.8728 14.572 13.7711 15.7035 13.7711 17.1013ZM11.2854 12.1457C11.2854 12.4538 11.3463 12.7459 11.4508 13.0171C11.6053 13.0508 11.766 13.07 11.9314 13.07C13.2141 13.07 14.2533 12.0012 14.2533 10.6821C14.2533 10.374 14.1924 10.0819 14.0878 9.81071C13.9334 9.77701 13.7727 9.75775 13.6073 9.75775C12.3246 9.75775 11.2854 10.8265 11.2854 12.1457ZM21.2156 10.6805C21.2156 10.6436 21.2064 10.6083 21.2047 10.573C20.7788 10.0771 20.164 9.75775 19.4697 9.75775C18.187 9.75775 17.1478 10.8265 17.1478 12.1457C17.1478 12.1826 17.1572 12.2179 17.1587 12.2532C17.5847 12.7491 18.1995 13.0684 18.8939 13.0684C20.1766 13.0684 21.2156 11.9996 21.2156 10.6805ZM15.0927 8.08557C15.3517 8.20593 15.6389 8.27494 15.9416 8.27494C16.9528 8.27494 17.7938 7.53192 17.9811 6.5498C17.7219 6.42944 17.4349 6.36044 17.1321 6.36044C16.121 6.36044 15.2801 7.10345 15.0927 8.08557ZM10.9827 28.3604C10.9827 27.2033 10.1822 26.2388 9.11805 26.019C8.66398 26.4555 8.37531 27.0717 8.37531 27.7617C8.37531 28.9188 9.17579 29.8833 10.24 30.1031C10.694 29.6667 10.9827 29.0504 10.9827 28.3604ZM16.2302 30.5942C16.5517 30.5942 16.8576 30.5269 17.1384 30.4112C17.5441 29.9603 17.7968 29.3618 17.7968 28.7006C17.7968 27.3043 16.6969 26.1715 15.3377 26.1715C15.0163 26.1715 14.7104 26.2388 14.4296 26.3544C14.0238 26.8054 13.7711 27.4039 13.7711 28.0651C13.7711 29.4612 14.8711 30.5942 16.2302 30.5942ZM13.6073 35.4085C13.7727 35.4085 13.9318 35.3893 14.0878 35.3556C14.1909 35.0844 14.2533 34.7922 14.2533 34.4842C14.2533 33.165 13.2141 32.0963 11.9314 32.0963C11.766 32.0963 11.6069 32.1156 11.4508 32.1492C11.3478 32.4205 11.2854 32.7125 11.2854 33.0207C11.2854 34.3398 12.3246 35.4085 13.6073 35.4085ZM18.8939 32.0979C18.1995 32.0979 17.5847 32.4173 17.1587 32.9132C17.1572 32.95 17.1478 32.9837 17.1478 33.0207C17.1478 34.3398 18.187 35.4085 19.4697 35.4085C20.164 35.4085 20.7788 35.0892 21.2047 34.5933C21.2064 34.5563 21.2156 34.5227 21.2156 34.4858C21.2156 33.1667 20.1766 32.0979 18.8939 32.0979ZM17.1306 38.8074C17.4334 38.8074 17.7189 38.7369 17.9794 38.6182C17.7922 37.6344 16.9512 36.8929 15.94 36.8929C15.6373 36.8929 15.3517 36.9635 15.0912 37.0824C15.2784 38.066 16.1195 38.8074 17.1306 38.8074ZM38.0023 31.9438C38.0023 31.6758 37.9477 31.4223 37.8588 31.1864C36.9319 31.4206 36.2423 32.2552 36.2423 33.2566C36.2423 33.5245 36.2969 33.7781 36.3858 34.014C37.3127 33.7796 38.0023 32.9452 38.0023 31.9438ZM40.694 27.2273C40.694 26.7796 40.5551 26.364 40.321 26.0205C39.7766 26.4089 39.4176 27.0428 39.4176 27.7649C39.4176 28.2127 39.5565 28.6283 39.7906 28.9717C40.3352 28.5834 40.694 27.9495 40.694 27.2273ZM42 22.5302C42 22.0118 41.7987 21.5432 41.4757 21.187C41.2043 21.5288 41.0342 21.9573 41.0342 22.4291C41.0342 22.9474 41.2355 23.416 41.5585 23.7723C41.8299 23.4304 42 23.002 42 22.5302ZM33.1886 38.8074C34.3682 38.8074 35.3232 37.8477 35.3232 36.665C34.1435 36.665 33.1886 37.6247 33.1886 38.8074ZM36.3858 11.1539C36.2969 11.3898 36.2423 11.6434 36.2423 11.9114C36.2423 12.9144 36.9319 13.7488 37.8588 13.9815C37.9477 13.7456 38.0023 13.4921 38.0023 13.2241C38.0023 12.2211 37.3127 11.3866 36.3858 11.1539ZM39.7921 16.1962C39.558 16.5396 39.4191 16.9551 39.4191 17.403C39.4191 18.1251 39.7781 18.759 40.3226 19.1474C40.5566 18.8038 40.6955 18.3883 40.6955 17.9406C40.6955 17.2183 40.3367 16.5845 39.7921 16.1962ZM35.3232 8.50121C35.3232 7.31849 34.3667 6.35883 33.1886 6.35883C33.1886 7.54155 34.1451 8.50121 35.3232 8.50121ZM6.79776 13.2241C6.79776 13.4921 6.85238 13.7456 6.94131 13.9815C7.86818 13.7472 8.55787 12.9127 8.55787 11.9114C8.55787 11.6434 8.50326 11.3898 8.41431 11.1539C7.48744 11.3882 6.79776 12.2227 6.79776 13.2241ZM4.10609 17.9406C4.10609 18.3883 4.24496 18.8038 4.47903 19.1474C5.0236 18.759 5.38249 18.1251 5.38249 17.403C5.38249 16.9551 5.24361 16.5396 5.00956 16.1962C4.46498 16.5845 4.10609 17.2183 4.10609 17.9406ZM2.80005 22.6377C2.80005 23.156 3.00134 23.6246 3.32433 23.9809C3.59585 23.6391 3.76592 23.2106 3.76592 22.7388C3.76592 22.2205 3.56463 21.7518 3.24164 21.3956C2.97013 21.7374 2.80005 22.1659 2.80005 22.6377ZM11.6116 6.36044C10.4319 6.36044 9.47694 7.31849 9.47694 8.50282C10.6566 8.50282 11.6116 7.54316 11.6116 6.36044ZM8.41431 34.014C8.50326 33.7781 8.55787 33.5245 8.55787 33.2566C8.55787 32.2535 7.86818 31.4191 6.94131 31.1864C6.85238 31.4223 6.79776 31.6758 6.79776 31.9438C6.79776 32.9468 7.48744 33.7813 8.41431 34.014ZM5.00799 28.9717C5.24205 28.6283 5.38092 28.2127 5.38092 27.7649C5.38092 27.0428 5.0236 26.4089 4.47746 26.0205C4.24341 26.364 4.10453 26.7796 4.10453 27.2273C4.10453 27.9495 4.46342 28.5834 5.00799 28.9717ZM9.47694 36.6667C9.47694 37.8494 10.4335 38.8091 11.6116 38.8091C11.6116 37.6264 10.655 36.6667 9.47694 36.6667ZM31.8919 4.70751C31.5471 4.06399 30.8776 3.62107 30.0989 3.62107C29.8805 3.62107 29.673 3.6644 29.4763 3.72859C29.8213 4.37212 30.4906 4.81503 31.2693 4.81503C31.4877 4.81503 31.6952 4.7717 31.8919 4.70751ZM23.6437 3.31135C24.0337 3.74143 24.5908 4.01586 25.2166 4.01586C25.7579 4.01586 26.2464 3.80723 26.6224 3.47344C26.2324 3.04336 25.6753 2.76893 25.0495 2.76893C24.5082 2.76893 24.0197 2.97756 23.6437 3.31135ZM13.523 4.81503C14.3016 4.81503 14.9711 4.37212 15.3159 3.72859C15.1177 3.6644 14.9117 3.62107 14.6933 3.62107C13.9147 3.62107 13.2453 4.06399 12.9004 4.70751C13.0986 4.7717 13.3046 4.81503 13.523 4.81503ZM19.7396 2.76893C19.1138 2.76893 18.5568 3.04336 18.1667 3.47344C18.5428 3.80723 19.0312 4.01586 19.5726 4.01586C20.1984 4.01586 20.7555 3.74143 21.1455 3.31135C20.7695 2.97756 20.281 2.76893 19.7396 2.76893ZM12.8989 40.4652C13.2437 41.1088 13.9131 41.5516 14.6918 41.5516C14.9102 41.5516 15.1177 41.5083 15.3144 41.4441C14.9695 40.8006 14.3001 40.3577 13.5215 40.3577C13.303 40.3577 13.0955 40.4011 12.8989 40.4652ZM21.147 41.8614C20.757 41.4313 20.1999 41.1569 19.5741 41.1569C19.0328 41.1569 18.5443 41.3655 18.1683 41.6993C18.5584 42.1294 19.1154 42.4038 19.7412 42.4038C20.2825 42.4038 20.771 42.1952 21.147 41.8614ZM31.2678 40.3577C30.4891 40.3577 29.8196 40.8006 29.4748 41.4441C29.673 41.5083 29.879 41.5516 30.0974 41.5516C30.8761 41.5516 31.5454 41.1088 31.8904 40.4652C31.6921 40.4011 31.4862 40.3577 31.2678 40.3577ZM25.0511 42.4038C25.6769 42.4038 26.2339 42.1294 26.624 41.6993C26.2479 41.3655 25.7596 41.1569 25.2181 41.1569C24.5924 41.1569 24.0354 41.4313 23.6452 41.8614C24.0212 42.1952 24.5097 42.4038 25.0511 42.4038Z" fill="url(#paint0_linear_15528_282)"/>
</g>
<path d="M52.166 6.86426C53.4185 6.86428 54.5656 7.16527 55.6074 7.76758C56.6935 8.38121 57.5694 9.22191 58.2344 10.29C58.8994 11.3583 59.2655 12.5633 59.332 13.9043H59.3486V21.8994H55.6074V21.0137C54.5656 21.6045 53.4184 21.8994 52.166 21.8994C50.9247 21.8994 49.783 21.6045 48.7412 21.0137C47.6107 20.3659 46.7018 19.4733 46.0146 18.3369C45.3386 17.2005 45.0001 15.9391 45 14.5527V14.2285C45 12.8306 45.3385 11.5633 46.0146 10.4268C46.7018 9.2904 47.6107 8.40396 48.7412 7.76758C49.7831 7.16531 50.9247 6.86426 52.166 6.86426ZM64.75 7.76758C65.7918 7.16529 66.9335 6.86432 68.1748 6.86426C69.4273 6.86426 70.5753 7.16524 71.6172 7.76758C72.7476 8.404 73.6511 9.29038 74.3271 10.4268C75.0143 11.5632 75.3574 12.8306 75.3574 14.2285V21.8994H71.6172V14.2285C71.6172 13.2511 71.2787 12.4212 70.6025 11.7393C69.9375 11.0575 69.128 10.7168 68.1748 10.7168C67.2329 10.7169 66.4296 11.0576 65.7646 11.7393C65.1883 12.3188 64.8553 13.0407 64.7666 13.9043H64.75V21.8994H61.0088V4H64.75V7.76758ZM80.7598 14.5527C80.7599 15.5185 81.092 16.3479 81.7568 17.041C82.433 17.7229 83.2424 18.0645 84.1846 18.0645C84.2952 18.0644 84.4004 18.0582 84.5 18.0469V21.8994H84.1846C82.9433 21.8994 81.8016 21.6045 80.7598 21.0137C79.6293 20.3659 78.7204 19.4733 78.0332 18.3369C77.3571 17.2005 77.0186 15.9391 77.0186 14.5527V4H80.7598V14.5527ZM90.0293 21.8994H86.2881V10.3926H90.0293V21.8994ZM52.166 10.7168C51.2239 10.7168 50.4144 11.0574 49.7383 11.7393C49.0732 12.4212 48.7412 13.2511 48.7412 14.2285V14.5527C48.7413 15.5185 49.0735 16.3479 49.7383 17.041C50.4144 17.7229 51.2239 18.0645 52.166 18.0645C53.1192 18.0644 53.9287 17.7176 54.5938 17.0244C55.17 16.4449 55.5021 15.723 55.5908 14.8594H55.6074V13.9043H55.5908C55.5021 13.0407 55.17 12.3188 54.5938 11.7393C53.9287 11.0574 53.1192 10.7168 52.166 10.7168ZM88.1504 4C88.8374 4.00006 89.4245 4.25017 89.9121 4.75C90.3997 5.24995 90.6444 5.85222 90.6445 6.55664C90.6445 7.26127 90.3998 7.8642 89.9121 8.36426C89.4245 8.86408 88.8374 9.1142 88.1504 9.11426C87.4632 9.11426 86.8754 8.86429 86.3877 8.36426C85.9 7.8642 85.6562 7.26127 85.6562 6.55664C85.6564 5.85222 85.9001 5.24995 86.3877 4.75C86.8754 4.24995 87.4632 4 88.1504 4Z" fill="url(#paint1_linear_15528_282)"/>
<path d="M52.166 24.0337C53.4185 24.0338 54.5655 24.3295 55.6074 24.9205C56.6715 25.5228 57.5306 26.3466 58.1846 27.3921C58.8496 28.4263 59.2323 29.5969 59.332 30.9039H55.5742C55.4523 30.1084 55.1257 29.4376 54.5938 28.8921C53.9287 28.2103 53.1192 27.8697 52.166 27.8697C51.2239 27.8697 50.4144 28.2165 49.7383 28.9097C49.0734 29.5916 48.7412 30.4155 48.7412 31.3814V32.3531C48.7413 33.3189 49.0735 34.1482 49.7383 34.8414C50.4144 35.5233 51.2239 35.8648 52.166 35.8648C53.1192 35.8648 53.9287 35.518 54.5938 34.8248C55.1256 34.2907 55.4523 33.6259 55.5742 32.8306H59.332C59.2322 34.1374 58.8495 35.3135 58.1846 36.3589C57.5306 37.3932 56.6715 38.2117 55.6074 38.814C54.5656 39.4049 53.4184 39.7007 52.166 39.7007C50.9247 39.7007 49.783 39.4049 48.7412 38.814C47.6107 38.1662 46.7019 37.2737 46.0146 36.1373C45.3385 35.0008 45 33.7395 45 32.3531V31.3814C45 29.9949 45.3385 28.7327 46.0146 27.5962C46.7018 26.46 47.6108 25.5682 48.7412 24.9205C49.7831 24.3295 50.9246 24.0337 52.166 24.0337ZM115.895 24.6812C117.147 24.6812 118.294 24.9656 119.336 25.5337C119.901 25.8405 120.416 26.2156 120.882 26.6587C121.724 27.4543 122.334 28.404 122.711 29.5064L119.336 31.8589L114.099 35.5064C114.631 35.8474 115.229 36.0181 115.895 36.0181C116.848 36.0181 117.656 35.688 118.321 35.0289C118.576 34.779 118.787 34.4953 118.953 34.1773H122.91C122.378 36.2569 121.187 37.8141 119.336 38.8482C118.294 39.4164 117.147 39.7007 115.895 39.7007C114.653 39.7007 113.512 39.4163 112.47 38.8482C111.904 38.5414 111.388 38.1664 110.923 37.7232C110.08 36.9277 109.471 35.9727 109.094 34.8589C108.85 34.1545 108.729 33.4158 108.729 32.6431V31.7222C108.729 30.3927 109.066 29.1823 109.742 28.0914C110.429 27.0003 111.339 26.1475 112.47 25.5337C113.512 24.9656 114.653 24.6812 115.895 24.6812ZM131.741 24.0337C132.994 24.0338 134.141 24.3295 135.183 24.9205C136.247 25.5228 137.106 26.3466 137.76 27.3921C138.425 28.4264 138.807 29.5969 138.907 30.9039H135.149C135.027 30.1084 134.701 29.4376 134.169 28.8921C133.504 28.2103 132.694 27.8697 131.741 27.8697C130.799 27.8697 129.99 28.2165 129.313 28.9097C128.649 29.5916 128.316 30.4155 128.316 31.3814V32.3531C128.316 33.3189 128.649 34.1482 129.313 34.8414C129.99 35.5233 130.799 35.8648 131.741 35.8648C132.694 35.8648 133.504 35.518 134.169 34.8248C134.701 34.2907 135.027 33.6259 135.149 32.8306H138.907C138.807 34.1374 138.425 35.3135 137.76 36.3589C137.106 37.3932 136.247 38.2117 135.183 38.814C134.141 39.4049 132.994 39.7007 131.741 39.7007C130.5 39.7007 129.358 39.4049 128.316 38.814C127.186 38.1662 126.277 37.2737 125.59 36.1373C124.914 35.0008 124.575 33.7395 124.575 32.3531V31.3814C124.575 29.9949 124.914 28.7327 125.59 27.5962C126.277 26.46 127.186 25.5682 128.316 24.9205C129.358 24.3295 130.5 24.0337 131.741 24.0337ZM68.126 24.7154C69.3562 24.7154 70.4924 24.9997 71.5342 25.5679C72.6536 26.1703 73.5514 27.017 74.2275 28.108C74.9037 29.1876 75.2422 30.3925 75.2422 31.7222V32.6431C75.2421 33.9726 74.9036 35.1831 74.2275 36.274C73.5514 37.3536 72.6536 38.2003 71.5342 38.814C70.4924 39.3822 69.3562 39.6665 68.126 39.6666C66.8847 39.6666 65.7485 39.3821 64.7178 38.814C63.5872 38.2003 62.683 37.3537 62.0068 36.274C61.3308 35.1831 60.9932 33.9726 60.9932 32.6431V31.7222C60.9932 30.3926 61.3308 29.1876 62.0068 28.108C62.683 27.0169 63.5872 26.1703 64.7178 25.5679C65.7485 24.9998 66.8847 24.7154 68.126 24.7154ZM84.2041 24.733C85.3786 24.7671 86.4591 25.0621 87.4453 25.6187C88.5648 26.2551 89.4635 27.1424 90.1396 28.2789C90.8156 29.4039 91.1533 30.6539 91.1533 32.0289V39.6666H87.4453V32.0289C87.4453 31.1198 87.1518 30.3416 86.5645 29.6939C85.977 29.0348 85.2346 28.6536 84.3369 28.5513H84.1201C84.087 28.54 84.0592 28.5347 84.0371 28.5347C84.004 28.5348 83.9762 28.54 83.9541 28.5513H83.7217C82.8349 28.6536 82.0972 29.0347 81.5098 29.6939C80.9226 30.3416 80.6289 31.1199 80.6289 32.0289V39.6666H76.9043V32.0289C76.9043 30.6538 77.2429 29.4039 77.9189 28.2789C78.5951 27.1424 79.4983 26.2551 80.6289 25.6187C81.6043 25.0619 82.6852 24.7671 83.8711 24.733H84.2041ZM100.115 24.733C101.29 24.7671 102.371 25.062 103.357 25.6187C104.477 26.2551 105.375 27.1424 106.051 28.2789C106.727 29.4039 107.065 30.6538 107.065 32.0289V39.6666H103.357V32.0289C103.357 31.1198 103.064 30.3416 102.477 29.6939C101.889 29.0348 101.147 28.6537 100.249 28.5513H100.032C99.9991 28.54 99.9713 28.5347 99.9492 28.5347C99.916 28.5347 99.8884 28.54 99.8662 28.5513H99.6338C98.7471 28.6536 98.0093 29.0347 97.4219 29.6939C96.8347 30.3416 96.541 31.1199 96.541 32.0289V39.6666H92.8164V32.0289C92.8164 30.6538 93.155 29.4039 93.8311 28.2789C94.5072 27.1424 95.4104 26.2551 96.541 25.6187C97.5164 25.0619 98.5973 24.7671 99.7832 24.733H100.115ZM144.293 25.6871H148V29.4888H144.293V32.3531C144.293 33.319 144.625 34.1429 145.29 34.8248C145.955 35.5067 146.759 35.8472 147.701 35.8472C147.801 35.8472 147.9 35.842 148 35.8306V39.649C147.9 39.6603 147.801 39.6665 147.701 39.6666C146.46 39.6666 145.324 39.3707 144.293 38.7798C143.162 38.1434 142.258 37.2624 141.582 36.1373C140.906 35.0009 140.568 33.7394 140.568 32.3531V21.8687H144.293V25.6871ZM68.126 28.3638C67.1839 28.3638 66.3799 28.6931 65.7148 29.3521C65.0498 30.0113 64.7178 30.8017 64.7178 31.7222V32.6431C64.7179 33.5747 65.0501 34.3699 65.7148 35.0289C66.3799 35.6767 67.1838 36.0005 68.126 36.0005C69.0679 36.0005 69.8712 35.6712 70.5361 35.0123C71.2011 34.3646 71.5341 33.5748 71.5342 32.6431V31.7222C71.5342 30.8017 71.2012 30.0113 70.5361 29.3521C69.8712 28.6933 69.0678 28.3639 68.126 28.3638ZM115.895 28.3462C114.952 28.3462 114.143 28.6763 113.467 29.3355C112.802 29.9947 112.47 30.7903 112.47 31.7222V32.5064L117.707 28.858C117.164 28.5171 116.559 28.3463 115.895 28.3462Z" fill="url(#paint2_linear_15528_282)"/>
<defs>
<linearGradient id="paint0_linear_15528_282" x1="2.80005" y1="22.5863" x2="42" y2="22.5863" gradientUnits="userSpaceOnUse">
<stop stop-color="#82FA79"/>
<stop offset="0.35" stop-color="#3C92F9"/>
<stop offset="0.64" stop-color="#7F54CF"/>
<stop offset="1" stop-color="#CE09E8"/>
</linearGradient>
<linearGradient id="paint1_linear_15528_282" x1="45.6959" y1="5.95297" x2="112.048" y2="19.2908" gradientUnits="userSpaceOnUse">
<stop stop-color="#82FA79"/>
<stop offset="0.35" stop-color="#3C92F9"/>
<stop offset="0.64" stop-color="#7F54CF"/>
<stop offset="1" stop-color="#CE09E8"/>
</linearGradient>
<linearGradient id="paint2_linear_15528_282" x1="53.2922" y1="63.4085" x2="168.421" y2="0.617373" gradientUnits="userSpaceOnUse">
<stop stop-color="#82FA79"/>
<stop offset="0.35" stop-color="#3C92F9"/>
<stop offset="0.64" stop-color="#7F54CF"/>
<stop offset="1" stop-color="#CE09E8"/>
</linearGradient>
</defs>
</svg>
