<svg width="32" height="32" viewBox="0 0 32 32" fill="none" xmlns="http://www.w3.org/2000/svg">
<g clip-path="url(#clip0_15526_96)">
<path d="M16.6398 16.0953C16.6398 15.153 17.3821 14.3896 18.2982 14.3896C19.2144 14.3896 19.9567 15.153 19.9567 16.0953C19.9567 17.0375 19.2144 17.8009 18.2982 17.8009C17.3821 17.8009 16.6398 17.0375 16.6398 16.0953ZM27.5312 16.0873C27.5312 15.4878 27.2125 14.9708 26.7433 14.6888C26.3454 14.9834 26.0834 15.4614 26.0834 16.0047C26.0834 16.6042 26.4022 17.1212 26.8714 17.4032C27.2693 17.1086 27.5312 16.6306 27.5312 16.0873ZM23.2647 17.7585C23.9145 17.4937 24.3748 16.8449 24.3748 16.0827C24.3748 15.2115 23.7752 14.4859 22.9783 14.3151C22.3285 14.5799 21.867 15.2287 21.867 15.991C21.867 16.8621 22.4667 17.5877 23.2636 17.7585H23.2647ZM24.6858 21.5022C25.4448 21.3463 26.0177 20.6574 26.0177 19.8298C26.0177 19.3369 25.8115 18.8968 25.4871 18.585C24.7281 18.7409 24.1552 19.4298 24.1552 20.2574C24.1552 20.7503 24.3614 21.1905 24.6858 21.5022ZM22.1635 20.0476C22.1635 19.5742 21.983 19.1478 21.6932 18.8257C21.4926 18.7432 21.2741 18.695 21.0445 18.695C20.0748 18.695 19.288 19.5043 19.288 20.5015C19.288 20.975 19.4685 21.4014 19.7583 21.7235C19.9589 21.806 20.1774 21.8541 20.407 21.8541C21.3766 21.8541 22.1635 21.046 22.1635 20.0476ZM15.9967 22.0135C16.9128 22.0135 17.6551 21.2501 17.6551 20.3078C17.6551 19.3656 16.9128 18.6022 15.9967 18.6022C15.0805 18.6022 14.3382 19.3656 14.3382 20.3078C14.3382 21.2501 15.0805 22.0135 15.9967 22.0135ZM23.939 23.5862C23.939 23.3661 23.8955 23.1575 23.8209 22.9637C23.7105 22.9397 23.5957 22.9259 23.4776 22.9259C22.5614 22.9259 21.8191 23.6893 21.8191 24.6316C21.8191 24.8516 21.8626 25.0603 21.9373 25.254C22.0476 25.2781 22.1624 25.2918 22.2806 25.2918C23.1967 25.2918 23.939 24.5284 23.939 23.5862ZM16.846 24.6327C16.846 24.6591 16.8526 24.6843 16.8538 24.7095C17.158 25.0637 17.5972 25.2918 18.0931 25.2918C19.0093 25.2918 19.7516 24.5284 19.7516 23.5862C19.7516 23.5598 19.7449 23.5346 19.7438 23.5094C19.4395 23.1552 19.0004 22.9271 18.5044 22.9271C17.5882 22.9271 16.846 23.6905 16.846 24.6327ZM21.2195 26.4874C21.0345 26.4014 20.8294 26.3521 20.6132 26.3521C19.8909 26.3521 19.2902 26.8828 19.1564 27.5844C19.3415 27.6703 19.5465 27.7196 19.7628 27.7196C20.485 27.7196 21.0857 27.1889 21.2195 26.4874ZM15.9967 27.7196C16.5138 27.7196 16.9674 27.4479 17.2338 27.0353C16.9674 26.6238 16.5138 26.351 15.9967 26.351C15.4795 26.351 15.0259 26.6226 14.7595 27.0353C15.0259 27.4468 15.4795 27.7196 15.9967 27.7196ZM24.1552 12.0042C24.1552 12.8307 24.727 13.5196 25.4871 13.6767C25.8115 13.3649 26.0177 12.9247 26.0177 12.4318C26.0177 11.6053 25.4459 10.9164 24.6858 10.7594C24.3614 11.0712 24.1552 11.5113 24.1552 12.0042ZM20.407 10.4086C20.1774 10.4086 19.9589 10.4568 19.7583 10.5393C19.4685 10.8614 19.288 11.289 19.288 11.7612C19.288 12.7585 20.0737 13.5678 21.0445 13.5678C21.2741 13.5678 21.4926 13.5196 21.6932 13.4371C21.983 13.115 22.1635 12.6874 22.1635 12.2152C22.1635 11.2179 21.3778 10.4086 20.407 10.4086ZM14.3382 11.955C14.3382 12.8972 15.0805 13.6606 15.9967 13.6606C16.9128 13.6606 17.6551 12.8972 17.6551 11.955C17.6551 11.0127 16.9128 10.2493 15.9967 10.2493C15.0805 10.2493 14.3382 11.0127 14.3382 11.955ZM22.2806 6.96982C22.1624 6.96982 22.0487 6.98358 21.9373 7.00765C21.8637 7.20137 21.8191 7.40999 21.8191 7.63007C21.8191 8.57231 22.5614 9.33572 23.4776 9.33572C23.5957 9.33572 23.7094 9.32197 23.8209 9.2979C23.8944 9.10418 23.939 8.89556 23.939 8.67547C23.939 7.73324 23.1967 6.96982 22.2806 6.96982ZM18.5044 9.33572C19.0004 9.33572 19.4395 9.10762 19.7438 8.75342C19.7438 8.72705 19.7516 8.70298 19.7516 8.67662C19.7516 7.73438 19.0093 6.97097 18.0931 6.97097C17.5972 6.97097 17.158 7.19908 16.8538 7.55327C16.8526 7.57964 16.846 7.60371 16.846 7.63007C16.846 8.57231 17.5882 9.33572 18.5044 9.33572ZM19.7639 4.54202C19.5476 4.54202 19.3437 4.59246 19.1576 4.67728C19.2913 5.37994 19.892 5.90952 20.6143 5.90952C20.8305 5.90952 21.0345 5.85909 21.2206 5.77426C21.0869 5.0716 20.4861 4.54202 19.7639 4.54202ZM14.7595 5.22634C15.0259 5.63786 15.4795 5.91067 15.9967 5.91067C16.5138 5.91067 16.9674 5.639 17.2338 5.22634C16.9674 4.81483 16.5138 4.54202 15.9967 4.54202C15.4795 4.54202 15.0259 4.81369 14.7595 5.22634ZM13.7018 14.4607C12.7856 14.4607 12.0433 15.2241 12.0433 16.1664C12.0433 17.1086 12.7856 17.872 13.7018 17.872C14.6179 17.872 15.3602 17.1086 15.3602 16.1664C15.3602 15.2241 14.6179 14.4607 13.7018 14.4607ZM4.46875 16.1744C4.46875 16.7739 4.78752 17.2908 5.25675 17.5728C5.65465 17.2782 5.91657 16.8002 5.91657 16.2569C5.91657 15.6574 5.5978 15.1404 5.12857 14.8585C4.73067 15.153 4.46875 15.631 4.46875 16.1744ZM8.73529 14.5031C8.0855 14.7679 7.62407 15.4167 7.62407 16.179C7.62407 17.049 8.22371 17.7757 9.02062 17.9465C9.67041 17.6817 10.1318 17.0329 10.1318 16.2707C10.1318 15.3995 9.5322 14.6739 8.73529 14.5031ZM7.31423 10.7605C6.55521 10.9164 5.98233 11.6053 5.98233 12.4329C5.98233 12.9258 6.18852 13.366 6.51286 13.6778C7.27187 13.5219 7.84476 12.833 7.84476 12.0054C7.84476 11.5125 7.63856 11.0723 7.31423 10.7605ZM9.83648 12.2152C9.83648 12.6886 10.017 13.115 10.3068 13.4371C10.5074 13.5196 10.7259 13.5678 10.9555 13.5678C11.9252 13.5678 12.712 12.7585 12.712 11.7612C12.712 11.2878 12.5315 10.8614 12.2417 10.5393C12.0411 10.4568 11.8226 10.4086 11.593 10.4086C10.6234 10.4086 9.83648 11.2168 9.83648 12.2152ZM8.06098 8.67547C8.06098 8.89556 8.10445 9.10418 8.17913 9.2979C8.28947 9.32197 8.40427 9.33572 8.52241 9.33572C9.43858 9.33572 10.1809 8.57231 10.1809 7.63007C10.1809 7.40999 10.1374 7.20137 10.0627 7.00765C9.95239 6.98358 9.83759 6.96982 9.71945 6.96982C8.80328 6.96982 8.06098 7.73324 8.06098 8.67547ZM15.154 7.62893C15.154 7.60256 15.1474 7.57735 15.1462 7.55213C14.842 7.19793 14.4028 6.96982 13.9069 6.96982C12.9907 6.96982 12.2484 7.73324 12.2484 8.67547C12.2484 8.70184 12.2551 8.72705 12.2562 8.75227C12.5605 9.10647 12.9996 9.33458 13.4956 9.33458C14.4118 9.33458 15.154 8.57116 15.154 7.62893ZM10.7805 5.77541C10.9655 5.86138 11.1706 5.91067 11.3868 5.91067C12.1091 5.91067 12.7098 5.37994 12.8436 4.67843C12.6585 4.59246 12.4535 4.54317 12.2372 4.54317C11.515 4.54317 10.9143 5.07389 10.7805 5.77541ZM7.84476 20.2574C7.84476 19.4309 7.27299 18.742 6.51286 18.585C6.18852 18.8968 5.98233 19.3369 5.98233 19.8298C5.98233 20.6563 6.5541 21.3452 7.31423 21.5022C7.63856 21.1905 7.84476 20.7503 7.84476 20.2574ZM11.593 21.853C11.8226 21.853 12.0411 21.8049 12.2417 21.7223C12.5315 21.4002 12.712 20.9727 12.712 20.5004C12.712 19.5031 11.9263 18.6939 10.9555 18.6939C10.7259 18.6939 10.5074 18.742 10.3068 18.8246C10.017 19.1467 9.83648 19.5742 9.83648 20.0465C9.83648 21.0437 10.6222 21.853 11.593 21.853ZM9.71945 25.2918C9.83759 25.2918 9.95128 25.2781 10.0627 25.254C10.1363 25.0603 10.1809 24.8516 10.1809 24.6316C10.1809 23.6893 9.43858 22.9259 8.52241 22.9259C8.40427 22.9259 8.29058 22.9397 8.17913 22.9637C8.10557 23.1575 8.06098 23.3661 8.06098 23.5862C8.06098 24.5284 8.80328 25.2918 9.71945 25.2918ZM13.4956 22.9271C12.9996 22.9271 12.5605 23.1552 12.2562 23.5094C12.2551 23.5357 12.2484 23.5598 12.2484 23.5862C12.2484 24.5284 12.9907 25.2918 13.9069 25.2918C14.4028 25.2918 14.842 25.0637 15.1462 24.7095C15.1474 24.6831 15.154 24.6591 15.154 24.6327C15.154 23.6905 14.4118 22.9271 13.4956 22.9271ZM12.2361 27.7196C12.4524 27.7196 12.6563 27.6692 12.8424 27.5844C12.7087 26.8817 12.108 26.3521 11.3857 26.3521C11.1695 26.3521 10.9655 26.4025 10.7794 26.4874C10.9131 27.19 11.5139 27.7196 12.2361 27.7196ZM27.1445 22.817C27.1445 22.6256 27.1055 22.4445 27.042 22.276C26.3799 22.4433 25.8873 23.0394 25.8873 23.7547C25.8873 23.9461 25.9263 24.1272 25.9898 24.2957C26.6519 24.1283 27.1445 23.5323 27.1445 22.817ZM29.0671 19.4481C29.0671 19.1283 28.9679 18.8314 28.8007 18.5861C28.4118 18.8635 28.1554 19.3163 28.1554 19.8321C28.1554 20.1519 28.2546 20.4488 28.4218 20.6941C28.8108 20.4167 29.0671 19.9639 29.0671 19.4481ZM30 16.093C30 15.7227 29.8562 15.388 29.6255 15.1336C29.4316 15.3777 29.3101 15.6838 29.3101 16.0208C29.3101 16.391 29.4539 16.7257 29.6846 16.9802C29.8785 16.736 30 16.43 30 16.093ZM23.7061 27.7196C24.5487 27.7196 25.2308 27.0341 25.2308 26.1893C24.3882 26.1893 23.7061 26.8748 23.7061 27.7196ZM25.9898 7.96708C25.9263 8.13558 25.8873 8.31669 25.8873 8.50812C25.8873 9.22454 26.3799 9.8206 27.042 9.98681C27.1055 9.8183 27.1445 9.63719 27.1445 9.44577C27.1445 8.72935 26.6519 8.13329 25.9898 7.96708ZM28.4229 11.5687C28.2557 11.814 28.1565 12.1108 28.1565 12.4307C28.1565 12.9465 28.4129 13.3993 28.8018 13.6767C28.969 13.4313 29.0682 13.1345 29.0682 12.8147C29.0682 12.2988 28.8119 11.8461 28.4229 11.5687ZM25.2308 6.07229C25.2308 5.22749 24.5476 4.54202 23.7061 4.54202C23.7061 5.38682 24.3893 6.07229 25.2308 6.07229ZM4.85551 9.44577C4.85551 9.63719 4.89452 9.8183 4.95804 9.98681C5.62009 9.81945 6.11273 9.22339 6.11273 8.50812C6.11273 8.31669 6.07372 8.13558 6.01019 7.96708C5.34814 8.13443 4.85551 8.73049 4.85551 9.44577ZM2.93289 12.8147C2.93289 13.1345 3.03208 13.4313 3.19927 13.6767C3.58825 13.3993 3.8446 12.9465 3.8446 12.4307C3.8446 12.1108 3.7454 11.814 3.57822 11.5687C3.18924 11.8461 2.93289 12.2988 2.93289 12.8147ZM2 16.1698C2 16.54 2.14378 16.8747 2.37449 17.1292C2.56843 16.8851 2.68991 16.579 2.68991 16.242C2.68991 15.8718 2.54613 15.537 2.31542 15.2826C2.12149 15.5267 2 15.8328 2 16.1698ZM8.29393 4.54317C7.45132 4.54317 6.76921 5.22749 6.76921 6.07344C7.61181 6.07344 8.29393 5.38797 8.29393 4.54317ZM6.01019 24.2957C6.07372 24.1272 6.11273 23.9461 6.11273 23.7547C6.11273 23.0382 5.62009 22.4422 4.95804 22.276C4.89452 22.4445 4.85551 22.6256 4.85551 22.817C4.85551 23.5334 5.34814 24.1295 6.01019 24.2957ZM3.5771 20.6941C3.74429 20.4488 3.84348 20.1519 3.84348 19.8321C3.84348 19.3163 3.58825 18.8635 3.19815 18.5861C3.03097 18.8314 2.93177 19.1283 2.93177 19.4481C2.93177 19.9639 3.18812 20.4167 3.5771 20.6941ZM6.76921 26.1905C6.76921 27.0353 7.45243 27.7208 8.29393 27.7208C8.29393 26.876 7.6107 26.1905 6.76921 26.1905ZM22.7799 3.36251C22.5336 2.90285 22.0554 2.58648 21.4992 2.58648C21.3432 2.58648 21.195 2.61743 21.0545 2.66328C21.3009 3.12294 21.779 3.43931 22.3352 3.43931C22.4912 3.43931 22.6394 3.40836 22.7799 3.36251ZM16.8883 2.36525C17.1669 2.67245 17.5648 2.86847 18.0118 2.86847C18.3985 2.86847 18.7474 2.71945 19.016 2.48103C18.7374 2.17383 18.3395 1.97781 17.8925 1.97781C17.5058 1.97781 17.1569 2.12683 16.8883 2.36525ZM9.65926 3.43931C10.2154 3.43931 10.6936 3.12294 10.9399 2.66328C10.7983 2.61743 10.6512 2.58648 10.4952 2.58648C9.93902 2.58648 9.46087 2.90285 9.21455 3.36251C9.3561 3.40836 9.50322 3.43931 9.65926 3.43931ZM14.0997 1.97781C13.6527 1.97781 13.2548 2.17383 12.9762 2.48103C13.2448 2.71945 13.5937 2.86847 13.9804 2.86847C14.4274 2.86847 14.8253 2.67245 15.1039 2.36525C14.8353 2.12683 14.4864 1.97781 14.0997 1.97781ZM9.21344 28.9037C9.45976 29.3634 9.9379 29.6797 10.4941 29.6797C10.6501 29.6797 10.7983 29.6488 10.9388 29.6029C10.6925 29.1433 10.2143 28.8269 9.65815 28.8269C9.50211 28.8269 9.35387 28.8579 9.21344 28.9037ZM15.105 29.901C14.8264 29.5938 14.4285 29.3978 13.9815 29.3978C13.5948 29.3978 13.2459 29.5468 12.9773 29.7852C13.256 30.0924 13.6538 30.2884 14.1008 30.2884C14.4875 30.2884 14.8364 30.1394 15.105 29.901ZM22.3341 28.8269C21.7779 28.8269 21.2997 29.1433 21.0534 29.6029C21.195 29.6488 21.3421 29.6797 21.4981 29.6797C22.0543 29.6797 22.5324 29.3634 22.7788 28.9037C22.6372 28.8579 22.4901 28.8269 22.3341 28.8269ZM17.8936 30.2884C18.3406 30.2884 18.7385 30.0924 19.0171 29.7852C18.7485 29.5468 18.3997 29.3978 18.0129 29.3978C17.566 29.3978 17.1681 29.5938 16.8894 29.901C17.158 30.1394 17.5069 30.2884 17.8936 30.2884Z" fill="url(#paint0_linear_15526_96)"/>
</g>
<defs>
<linearGradient id="paint0_linear_15526_96" x1="2" y1="16.1331" x2="30" y2="16.1331" gradientUnits="userSpaceOnUse">
<stop stop-color="#82FA79"/>
<stop offset="0.35" stop-color="#3C92F9"/>
<stop offset="0.64" stop-color="#7F54CF"/>
<stop offset="1" stop-color="#CE09E8"/>
</linearGradient>
<clipPath id="clip0_15526_96">
<rect width="28" height="28.3106" fill="white" transform="translate(2 1.97781)"/>
</clipPath>
</defs>
</svg>
