<svg width="200" height="200" viewBox="0 0 200 200" xmlns="http://www.w3.org/2000/svg">
  <circle cx="100" cy="100" r="100" fill="white"/>
  <!-- IHC globe made of dots -->
  <g transform="translate(100,82)">
    <!-- Row 1 (top) -->
    <circle cx="-8" cy="-35" r="4" fill="#2563EB"/>
    <circle cx="8" cy="-35" r="4" fill="#3B82F6"/>
    <!-- Row 2 -->
    <circle cx="-24" cy="-24" r="4.5" fill="#1D4ED8"/>
    <circle cx="-8" cy="-22" r="5" fill="#2563EB"/>
    <circle cx="8" cy="-22" r="5" fill="#3B82F6"/>
    <circle cx="24" cy="-24" r="4.5" fill="#60A5FA"/>
    <!-- Row 3 -->
    <circle cx="-35" cy="-10" r="4" fill="#1E40AF"/>
    <circle cx="-20" cy="-9" r="5.5" fill="#2563EB"/>
    <circle cx="-4" cy="-8" r="5.5" fill="#3B82F6"/>
    <circle cx="12" cy="-8" r="5.5" fill="#60A5FA"/>
    <circle cx="28" cy="-10" r="5" fill="#93C5FD"/>
    <circle cx="40" cy="-10" r="3.5" fill="#BFDBFE"/>
    <!-- Row 4 (equator) -->
    <circle cx="-38" cy="4" r="4" fill="#1E3A8A"/>
    <circle cx="-22" cy="5" r="5.5" fill="#1D4ED8"/>
    <circle cx="-6" cy="6" r="6" fill="#2563EB"/>
    <circle cx="12" cy="6" r="6" fill="#3B82F6"/>
    <circle cx="28" cy="5" r="5.5" fill="#60A5FA"/>
    <circle cx="42" cy="4" r="4" fill="#93C5FD"/>
    <!-- Row 5 -->
    <circle cx="-32" cy="18" r="4.5" fill="#1E3A8A"/>
    <circle cx="-16" cy="19" r="5.5" fill="#1D4ED8"/>
    <circle cx="0" cy="20" r="5.5" fill="#2563EB"/>
    <circle cx="16" cy="19" r="5.5" fill="#3B82F6"/>
    <circle cx="32" cy="18" r="4.5" fill="#60A5FA"/>
    <!-- Row 6 -->
    <circle cx="-20" cy="32" r="4.5" fill="#1D4ED8"/>
    <circle cx="-4" cy="33" r="5" fill="#2563EB"/>
    <circle cx="12" cy="33" r="5" fill="#3B82F6"/>
    <circle cx="26" cy="32" r="4" fill="#60A5FA"/>
    <!-- Row 7 (bottom) -->
    <circle cx="-6" cy="44" r="4" fill="#2563EB"/>
    <circle cx="10" cy="44" r="4" fill="#3B82F6"/>
  </g>
  <!-- IHC text -->
  <text x="100" y="165" text-anchor="middle" font-family="'Inter','Helvetica Neue',Arial,sans-serif" font-weight="800" font-size="22" fill="#1E3A8A" letter-spacing="3">IHC</text>
</svg>
